<?xml version="1.0" encoding="UTF-8" standalone="no"?>
<!DOCTYPE svg PUBLIC "-//W3C//DTD SVG 1.1//EN" "http://www.w3.org/Graphics/SVG/1.1/DTD/svg11.dtd">
<svg width="100%" height="100%" viewBox="0 0 251 251" version="1.1" xmlns="http://www.w3.org/2000/svg" xmlns:xlink="http://www.w3.org/1999/xlink" xml:space="preserve" xmlns:serif="http://www.serif.com/" style="fill-rule:evenodd;clip-rule:evenodd;stroke-linejoin:round;stroke-miterlimit:2;">
    <g transform="matrix(1,0,0,1,-647,-326)">
        <g id="deviantart" transform="matrix(0.244141,0,0,0.416667,647.649,326.797)">
            <g>
                <g transform="matrix(5.38552,0,0,3.15558,-3649.85,-1125.08)">
                    <path d="M792.81,454.012L842.045,454.012L842.045,496.456L775.662,496.456C771.309,504.332 765.206,516.454 754.685,536.958L723.053,546.675L713.92,519.174C713.92,519.174 729.454,480.99 745.863,442.264L704.382,442.264L704.382,402.613L762.38,402.652C771.011,387.248 776.699,375.229 781.635,368.001L813.796,355.324L822.816,387.146L792.81,454.012Z"/>
                </g>
            </g>
        </g>
    </g>
</svg>
