<?xml version="1.0" encoding="UTF-8" standalone="no"?>
<!DOCTYPE svg PUBLIC "-//W3C//DTD SVG 1.1//EN" "http://www.w3.org/Graphics/SVG/1.1/DTD/svg11.dtd">
<svg width="100%" height="100%" viewBox="0 0 251 250" version="1.1" xmlns="http://www.w3.org/2000/svg" xmlns:xlink="http://www.w3.org/1999/xlink" xml:space="preserve" xmlns:serif="http://www.serif.com/" style="fill-rule:evenodd;clip-rule:evenodd;stroke-linejoin:round;stroke-miterlimit:2;">
    <g transform="matrix(1,0,0,1,-322,0)">
        <g id="discord" transform="matrix(0.244141,0,0,0.416667,322.111,0)">
            <g>
                <g transform="matrix(4.096,0,0,2.4,-1319.37,-3.41061e-14)">
                    <path d="M447.234,44.201C449.218,44.088 487.78,42.234 531.238,65.576C531.238,65.576 511.839,48.139 478.364,38.698L481.27,35.168C481.27,35.168 509.156,34.554 541.138,57.58C541.138,57.58 570.35,108.356 572.111,182.15C572.111,182.15 553.146,213.161 506.609,214.772L492.583,197.369C492.583,197.369 519.064,190.922 531.114,172.04C531.114,172.04 497.673,196.255 447.118,196.294C397.3,195.519 364.582,171.917 364.582,171.917C376.633,190.799 401.824,197.124 401.824,197.124L387.491,214.834C339.91,213.345 322.111,181.843 322.111,181.843C323.873,108.049 353.33,57.58 353.33,57.58C385.312,34.554 413.199,35.168 413.199,35.168L415.184,37.9C379.927,47.341 359.301,65.76 359.301,65.76C402.758,42.418 445.251,44.088 447.234,44.201Z"/>
                </g>
                <g transform="matrix(4.096,0,0,2.4,-1319.37,-3.41061e-14)">
                    <ellipse cx="407.188" cy="138.845" rx="21.899" ry="23.809" style="fill:white;"/>
                </g>
                <g transform="matrix(4.096,0,0,2.4,-1319.37,-3.41061e-14)">
                    <ellipse cx="485.291" cy="138.845" rx="21.899" ry="23.809" style="fill:white;"/>
                </g>
            </g>
        </g>
    </g>
</svg>
