<?xml version="1.0" encoding="UTF-8" standalone="no"?>
<!DOCTYPE svg PUBLIC "-//W3C//DTD SVG 1.1//EN" "http://www.w3.org/Graphics/SVG/1.1/DTD/svg11.dtd">
<svg width="100%" height="100%" viewBox="0 0 251 250" version="1.1" xmlns="http://www.w3.org/2000/svg" xmlns:xlink="http://www.w3.org/1999/xlink" xml:space="preserve" xmlns:serif="http://www.serif.com/" style="fill-rule:evenodd;clip-rule:evenodd;stroke-linejoin:round;stroke-miterlimit:2;">
    <g transform="matrix(1,0,0,1,-647,0)">
        <g id="instagram" transform="matrix(0.244141,0,0,0.416667,647.238,0)">
            <g transform="matrix(4.096,0,0,2.4,-2651.09,0)">
                <path d="M895.069,61.61L895.069,188.198C894.907,221.353 868.204,250.132 833.109,250L711.367,250C676.272,250.132 649.568,221.353 649.407,188.198L649.407,61.61C649.568,28.455 676.272,-0.324 711.367,-0.192L833.109,-0.192C868.204,-0.324 894.907,28.455 895.069,61.61ZM876.068,178.903L876.068,70.905C875.005,42.28 854.639,19.903 824.033,19.145L720.443,19.145C689.836,19.903 669.47,42.28 668.408,70.905L668.408,178.903C669.47,207.528 689.836,229.905 720.443,230.663L824.033,230.663C854.639,229.905 875.005,207.528 876.068,178.903Z"/>
            </g>
            <g transform="matrix(4.096,0,0,2.4,-2651.09,0)">
                <path d="M709.546,125C709.546,89.833 737.071,62.308 772.238,62.308C807.405,62.308 834.824,89.833 834.93,125C835.036,160.167 807.782,187.692 772.615,187.692C737.448,187.692 709.546,160.167 709.546,125Z"/>
            </g>
            <g transform="matrix(4.096,0,0,2.4,-2651.09,0)">
                <path d="M772.615,77.932C797.896,77.932 818.525,99.72 818.525,125C818.525,150.28 797.896,172.068 772.615,172.068C747.335,172.068 726.706,150.28 726.706,125C726.706,99.72 747.335,77.932 772.615,77.932Z" style="fill:white;"/>
            </g>
            <g transform="matrix(4.096,0,0,2.4,-2651.09,0)">
                <path d="M837.469,40.043C827.082,40.043 818.525,48.601 818.525,58.988C818.525,69.375 827.082,77.932 837.469,77.932C847.856,77.932 856.413,69.375 856.413,58.988C856.413,48.601 847.856,40.043 837.469,40.043Z"/>
            </g>
        </g>
    </g>
</svg>
