<?xml version="1.0" encoding="UTF-8" standalone="no"?>
<!DOCTYPE svg PUBLIC "-//W3C//DTD SVG 1.1//EN" "http://www.w3.org/Graphics/SVG/1.1/DTD/svg11.dtd">
<svg width="100%" height="100%" viewBox="0 0 250 251" version="1.1" xmlns="http://www.w3.org/2000/svg" xmlns:xlink="http://www.w3.org/1999/xlink" xml:space="preserve" xmlns:serif="http://www.serif.com/" style="fill-rule:evenodd;clip-rule:evenodd;stroke-linejoin:round;stroke-miterlimit:2;">
    <g transform="matrix(1,0,0,1,0,-326)">
        <g id="twitter" transform="matrix(0.244141,0,0,0.416667,0,326.797)">
            <g transform="matrix(4.25077,0,0,2.49068,-17.7245,-825.428)">
                <path d="M4.17,528.065C4.17,528.065 20.229,539.966 48.138,546.715C59.765,549.527 68.365,549.902 80.745,549.823C116.818,549.593 155.254,536.837 183.232,506.14C201.878,485.682 221.101,451.496 220.73,402.804C220.73,402.804 237.985,389.205 245.068,377.523C245.068,377.523 225.935,385.157 217.104,384.881C217.104,384.881 234.029,374.785 238.721,357.654C238.721,357.654 219.68,368.21 207.354,369.59C207.354,369.59 193.659,353.878 170.663,353.878C158.759,353.878 144.468,359.296 134.427,370.171C125.071,380.305 118.399,396.327 122.802,414.818C122.802,414.818 65.461,416.3 20.475,363.121C20.475,363.121 -1.642,401.496 35.927,429.242C35.927,429.242 23.515,429.652 13.741,422.983C13.741,422.983 10.743,460.802 53.401,472.415C53.401,472.415 41.76,475.805 30.942,472.935C30.942,472.935 39.382,505.811 77.326,507.305C77.326,507.305 50.861,532.384 4.17,528.065Z"/>
            </g>
        </g>
    </g>
</svg>
