<?xml version="1.0" encoding="UTF-8" standalone="no"?>
<!DOCTYPE svg PUBLIC "-//W3C//DTD SVG 1.1//EN" "http://www.w3.org/Graphics/SVG/1.1/DTD/svg11.dtd">
<svg width="100%" height="100%" viewBox="0 0 250 250" version="1.1" xmlns="http://www.w3.org/2000/svg" xmlns:xlink="http://www.w3.org/1999/xlink" xml:space="preserve" xmlns:serif="http://www.serif.com/" style="fill-rule:evenodd;clip-rule:evenodd;stroke-linejoin:round;stroke-miterlimit:2;">
    <g id="webtoon" transform="matrix(0.244141,0,0,0.416667,0,0)">
        <g>
            <g transform="matrix(4.096,0,0,2.4,0,1.13687e-13)">
                <path id="bg" d="M20.922,38.83L37.943,102.305L0,104.078L39.716,222.872L129.433,209.397L129.433,244.504L236.17,195.922L250,107.27L218.794,107.27L226.95,5.496L20.922,38.83ZM52.366,175.855L52.25,137.962L38.329,138.107L38.242,123.999L79.746,125.452L79.891,138.34L65.948,138.223L66.18,174.955L52.366,175.855ZM81.113,150.183C81.113,145.347 81.892,141.287 83.449,138.005C84.611,135.587 86.197,133.417 88.207,131.495C90.217,129.573 92.419,128.148 94.812,127.219C97.996,125.967 101.668,125.341 105.827,125.341C113.357,125.341 119.381,127.511 123.901,131.851C128.421,136.191 130.681,142.226 130.681,149.957C130.681,157.622 128.439,163.619 123.954,167.949C119.469,172.278 113.473,174.443 105.967,174.443C98.368,174.443 92.326,172.289 87.841,167.981C83.356,163.673 81.113,157.741 81.113,150.183ZM134.565,149.695C134.565,145.247 135.277,141.515 136.703,138.497C137.767,136.273 139.219,134.277 141.059,132.51C142.9,130.743 144.916,129.433 147.108,128.579C150.023,127.427 153.384,126.852 157.193,126.852C164.087,126.852 168.325,129.544 172.463,133.535C176.602,137.526 178.206,141.797 179.136,148.789C180.065,155.777 177.896,162.05 173.79,166.031C169.683,170.012 164.193,172.003 157.321,172.003C150.363,172.003 144.831,170.022 140.724,166.061C136.618,162.1 134.565,156.644 134.565,149.695ZM183.712,168.215L183.712,127.966L195.102,127.734L209.575,147.524L209.575,127.966L220.324,127.966L220.208,167.053L209.928,167.17L196.203,148.475L196.436,167.983L183.712,168.215ZM95.463,149.87C95.463,153.49 96.448,156.233 98.417,158.101C100.387,159.969 103.817,161.717 106.848,161.717C109.879,161.717 112.367,160.79 114.31,158.936C116.254,157.083 117.691,153.49 117.691,149.783C117.691,146.12 115.35,143.387 113.458,141.584C111.565,139.782 109.052,138.88 105.918,138.88C102.784,138.88 100.258,139.793 98.34,141.617C96.422,143.441 95.463,146.192 95.463,149.87ZM147.704,149.407C147.704,152.735 148.605,155.258 150.408,156.976C152.212,158.694 154.422,159.836 157.198,159.836C159.973,159.836 161.786,158.983 163.566,157.279C165.345,155.575 167.242,152.968 167.242,149.559C167.242,146.191 165.912,143.445 164.179,141.788C162.447,140.13 160.146,139.302 157.276,139.302C154.407,139.302 152.094,140.14 150.338,141.818C148.582,143.496 147.704,146.025 147.704,149.407ZM155.844,69.425L173.074,69.127C177.262,69.127 184.728,68.633 186.786,68.955C188.844,69.276 190.328,70.005 191.953,71.024C193.577,72.043 194.931,73.4 196.014,75.095C197.097,76.789 197.639,78.689 197.639,80.793C197.639,83.075 196.971,85.168 195.635,87.073C194.299,88.978 192.488,90.407 190.202,91.36C193.427,92.224 194.418,93.814 195.616,95.124C196.875,96.502 198.691,100.547 198.691,103.36C198.691,105.575 198.191,108.087 197.072,110.18C195.953,112.273 194.484,113.827 192.547,115.078C190.609,116.33 189.648,116.624 186.808,116.912C185.027,117.089 180.731,117.2 173.919,117.244L155.904,117.244L155.844,69.425ZM117.742,116.336L117.924,71.982L150.566,70.529L150.566,80.304L129.255,80.667L129.255,88.268L148.388,87.723L148.388,98.533L129.255,98.896L129.074,106.229L150.853,106.229L150.853,116.336L117.742,116.336ZM65.03,115.247L54.781,75.976L66.063,75.795L70.852,98.412L78.24,74.161L89.09,73.979L96.167,97.415L101.978,72.527L113.663,72.345L102.155,115.247L89.292,115.247L83.042,94.239L76.457,115.247L65.03,115.247ZM168.415,98.735L168.352,107.516L175.884,107.575C179.735,107.575 183.863,108.001 183.744,103.199C183.624,98.338 180.081,98.735 175.219,98.735L168.415,98.735ZM168.494,78.663L168.434,87.488L175.141,87.488C179.305,87.488 183.506,87.687 183.315,82.189C183.175,78.184 180.197,78.663 175.167,78.663L168.494,78.663Z"/>
            </g>
        </g>
    </g>
</svg>
